<?xml version="1.0" standalone="no"?><!DOCTYPE svg PUBLIC "-//W3C//DTD SVG 1.1//EN" "http://www.w3.org/Graphics/SVG/1.1/DTD/svg11.dtd"><svg t="1586260722922" class="icon" viewBox="0 0 1024 1024" version="1.1" xmlns="http://www.w3.org/2000/svg" p-id="10618" xmlns:xlink="http://www.w3.org/1999/xlink" width="200" height="200"><defs><style type="text/css"></style></defs><path d="M512 128c212.074667 0 384 171.925333 384 384s-171.925333 384-384 384S128 724.074667 128 512 299.925333 128 512 128z m0 64C335.274667 192 192 335.274667 192 512c0 91.242667 38.186667 173.546667 99.413333 231.850667l108.522667-129.386667a195.861333 195.861333 0 0 0 60.010667 28.053333l-117.930667 140.650667A318.506667 318.506667 0 0 0 512 832a318.506667 318.506667 0 0 0 161.237333-43.52l-120.170666-143.296a195.541333 195.541333 0 0 0 62.442666-25.088l109.589334 130.624A319.210667 319.210667 0 0 0 832 512c0-176.725333-143.274667-320-320-320z m0 106.666667a154.069333 154.069333 0 0 1 76.373333 287.914666l-0.64 0.362667-0.704 0.405333a153.685333 153.685333 0 0 1-4.928 2.624l5.632-3.029333a153.685333 153.685333 0 0 1-75.733333 19.861333 153.642667 153.642667 0 0 1-58.069333-11.306666l-0.213334-0.085334a153.173333 153.173333 0 0 1-5.653333-2.453333l5.888 2.56a153.194667 153.194667 0 0 1-20.970667-10.474667A154.069333 154.069333 0 0 1 512 298.666667z m0 64a90.069333 90.069333 0 1 0 0 180.138666A90.069333 90.069333 0 0 0 512 362.666667z" p-id="10619" fill="#666666"></path></svg>