<?xml version="1.0" standalone="no"?><!DOCTYPE svg PUBLIC "-//W3C//DTD SVG 1.1//EN" "http://www.w3.org/Graphics/SVG/1.1/DTD/svg11.dtd"><svg t="1586265954331" class="icon" viewBox="0 0 1024 1024" version="1.1" xmlns="http://www.w3.org/2000/svg" p-id="11920" xmlns:xlink="http://www.w3.org/1999/xlink" width="200" height="200"><defs><style type="text/css"></style></defs><path d="M704 149.333333a64 64 0 0 1 64 64v597.333334a64 64 0 0 1-64 64H320a64 64 0 0 1-64-64V213.333333a64 64 0 0 1 64-64h384z m0 64H320v597.333334h384V213.333333z m-192 469.333334a42.666667 42.666667 0 1 1 0 85.333333 42.666667 42.666667 0 0 1 0-85.333333z m85.333333-437.333334v64h-170.666666v-64h170.666666z" p-id="11921" fill="#666666"></path></svg>