<?xml version="1.0" standalone="no"?><!DOCTYPE svg PUBLIC "-//W3C//DTD SVG 1.1//EN" "http://www.w3.org/Graphics/SVG/1.1/DTD/svg11.dtd"><svg t="1586260901885" class="icon" viewBox="0 0 1024 1024" version="1.1" xmlns="http://www.w3.org/2000/svg" p-id="11362" xmlns:xlink="http://www.w3.org/1999/xlink" width="200" height="200"><defs><style type="text/css"></style></defs><path d="M469.333333 192c153.173333 0 277.333333 124.16 277.333334 277.333333 0 68.053333-24.533333 130.410667-65.216 178.688l164.885333 170.218667-48.341333 49.877333-167.594667-172.992A276.053333 276.053333 0 0 1 469.333333 746.666667c-153.173333 0-277.333333-124.16-277.333333-277.333334S316.16 192 469.333333 192z m0 64c-117.824 0-213.333333 95.509333-213.333333 213.333333s95.509333 213.333333 213.333333 213.333334 213.333333-95.509333 213.333334-213.333334-95.509333-213.333333-213.333334-213.333333z m32 85.333333v96H597.333333v64h-96V597.333333h-64v-96.021333L341.333333 501.333333v-64l96-0.021333V341.333333h64z" p-id="11363" fill="#666666"></path></svg>