<?xml version="1.0" standalone="no"?><!DOCTYPE svg PUBLIC "-//W3C//DTD SVG 1.1//EN" "http://www.w3.org/Graphics/SVG/1.1/DTD/svg11.dtd"><svg t="1586264829212" class="icon" viewBox="0 0 1024 1024" version="1.1" xmlns="http://www.w3.org/2000/svg" p-id="11734" xmlns:xlink="http://www.w3.org/1999/xlink" width="200" height="200"><defs><style type="text/css"></style></defs><path d="M830.784 489.301333l45.098667 45.397334-322.282667 320-14.656-14.762667 14.741333 14.890667h-45.013333v-45.376l-0.149333-0.149334 322.261333-320zM746.666667 170.666667a64 64 0 0 1 64 64v192l-64 64V234.666667H277.333333v554.666666h170.666667l-64 64h-106.666667a64 64 0 0 1-64-64V234.666667a64 64 0 0 1 64-64h469.333334zM533.333333 426.666667v64h-170.666666v-64h170.666666z m128-128v64H362.666667v-64h298.666666z" p-id="11735" fill="#666666"></path></svg>