<?xml version="1.0" standalone="no"?><!DOCTYPE svg PUBLIC "-//W3C//DTD SVG 1.1//EN" "http://www.w3.org/Graphics/SVG/1.1/DTD/svg11.dtd"><svg t="1586260711983" class="icon" viewBox="0 0 1024 1024" version="1.1" xmlns="http://www.w3.org/2000/svg" p-id="10432" xmlns:xlink="http://www.w3.org/1999/xlink" width="200" height="200"><defs><style type="text/css"></style></defs><path d="M552.96 200.128a64 64 0 0 1 8.213333 8.213333L682.666667 354.133333l134.016-98.965333a64 64 0 0 1 100.117333 66.986667L789.333333 832H234.666667L107.2 322.176a64 64 0 0 1 100.117333-67.008L341.333333 354.133333l121.493334-145.792a64 64 0 0 1 90.154666-8.213333zM512 249.301333l-160.128 192.170667-182.570667-134.826667L284.629333 768h454.741334l115.328-461.354667-182.570667 134.826667L512 249.301333z m149.333333 400.64v68.266667H362.666667v-68.266667h298.666666z" p-id="10433" fill="#666666"></path></svg>