<svg xmlns="http://www.w3.org/2000/svg" viewBox="0 0 32 32"><title>bottom_icon_book_n</title><path d="M23.1 31a3.53 3.53 0 0 1-1.62-.39L16.69 28a1.4 1.4 0 0 0-1.37 0l-4.78 2.61a3.53 3.53 0 0 1-5.09-3.83l.9-5.49a1.69 1.69 0 0 0-.45-1.45L2 15.87a3.63 3.63 0 0 1 2-6.12l5.37-.82a1.5 1.5 0 0 0 1.13-.86L12.85 3a3.46 3.46 0 0 1 6.3 0l2.38 5a1.51 1.51 0 0 0 1.14.87l5.33.87a3.63 3.63 0 0 1 2 6.13l-3.91 3.93a1.68 1.68 0 0 0-.45 1.44l.91 5.53A3.52 3.52 0 0 1 23.1 31zM16 25.78a3.4 3.4 0 0 1 1.65.43l4.77 2.61a1.53 1.53 0 0 0 2.17-1.67l-.92-5.57a3.69 3.69 0 0 1 1-3.17l3.87-3.93a1.63 1.63 0 0 0-.86-2.76l-5.31-.8a3.5 3.5 0 0 1-2.64-2l-2.39-5a1.46 1.46 0 0 0-2.66 0l-2.4 5.06a3.49 3.49 0 0 1-2.63 2l-5.35.81a1.61 1.61 0 0 0-.82.44 1.63 1.63 0 0 0 0 2.31l3.86 3.86a3.7 3.7 0 0 1 1 3.18l-.92 5.52a1.56 1.56 0 0 0 .13 1 1.53 1.53 0 0 0 2.05.66l4.75-2.6a3.4 3.4 0 0 1 1.65-.38z" fill="#999"/></svg>