<svg xmlns="http://www.w3.org/2000/svg" viewBox="0 0 32 32"><title>bottom_icon_like_n</title><path d="M24.3 30H3.4A2.53 2.53 0 0 1 1 27.72V14.5a2.57 2.57 0 0 1 2.28-2.24l5.23-.07c1.17-.44 4.1-3.08 4.22-5.55v-.33a4.4 4.4 0 0 1 8.66-1l.13.55a12.72 12.72 0 0 1-.12 5.21h5.37a4.44 4.44 0 0 1 3.58 2 4.3 4.3 0 0 1 .65 2.72v.32c0 .18-1.43 8.52-2.64 11.36l-.07.13-.2.32a4 4 0 0 1-1.47 1.52 5.11 5.11 0 0 1-2.32.56zM3 14.71v12.92a.52.52 0 0 0 .47.37H24.3a3.06 3.06 0 0 0 1.33-.31 2.11 2.11 0 0 0 .69-.77l.19-.31c1-2.32 2.21-9.15 2.47-10.73v-.24a2.3 2.3 0 0 0-.35-1.43 2.42 2.42 0 0 0-1.94-1.12h-8.07l.47-1.33a10.63 10.63 0 0 0 .44-5.46l-.12-.48a2.4 2.4 0 0 0-4.71.55V6.67c-.11 3.71-4.56 7.61-6.47 7.61H3.39a.57.57 0 0 0-.39.43z" fill="#999"/><path fill="#999" d="M9 15.02h2v12.99H9z"/></svg>