<svg xmlns="http://www.w3.org/2000/svg" viewBox="0 0 32 32"><title>detail_icon_like</title><path d="M29.5 13.45a3.37 3.37 0 0 0-2.75-1.7h-6.73a13.28 13.28 0 0 0 .68-4.19 13.48 13.48 0 0 0-.19-2.21l-.13-.56A3.43 3.43 0 0 0 17.06 2a3.49 3.49 0 0 0-3.41 3.56 2.94 2.94 0 0 0 0 .31c-.09 3.48-4.11 7.06-5.47 7.06h-5A1.21 1.21 0 0 0 2 14.17v14.58A1.26 1.26 0 0 0 3.3 30h21.15a3.39 3.39 0 0 0 1.63-.56 3.22 3.22 0 0 0 1.14-1.28l.2-.35C28.55 25 29.93 16.34 30 16v-.35a3.68 3.68 0 0 0-.51-2.17z" fill="none" stroke="#47afff" stroke-width="2"/><path d="M4 13.05h3a2 2 0 0 1 2 2V28a2 2 0 0 1-2 2H4a2 2 0 0 1-2-2V15.05a2 2 0 0 1 2-2z" fill="#47afff"/></svg>