<svg xmlns="http://www.w3.org/2000/svg" viewBox="0 0 32 32"><title>detail_icon_hot</title><path d="M28 17.76c-.38-3.88-2.57-7.38-5.17-10.34a21.6 21.6 0 0 0-6.52-5.08c-.38-.12-.85-.53-1.24-.23a2.79 2.79 0 0 0-.58 1.1c-1.25 3.16-3.81 5.64-6.24 8.07-1.89 1.94-3.71 4.14-4.12 6.8a10.17 10.17 0 0 0 4.26 10.17C12.64 31 19.63 30.17 22.65 28A11.45 11.45 0 0 0 28 17.76zm-7.4 8.42a4.9 4.9 0 0 1-4.81 3.75A4.65 4.65 0 0 1 11 25.56 10.19 10.19 0 0 1 12.92 20c0 1-.32 2.16.45 3a2.74 2.74 0 0 0 3.86.32l.15-.14c1.28-1.29 1-3.21.64-4.78a8 8 0 0 1 2.57 7.82z" fill="#ff5420"/></svg>