<?xml version="1.0" encoding="utf-8"?>
<!-- Generator: Adobe Illustrator 22.0.1, SVG Export Plug-In . SVG Version: 6.00 Build 0)  -->
<svg version="1.1" id="图层_1" xmlns="http://www.w3.org/2000/svg" xmlns:xlink="http://www.w3.org/1999/xlink" x="0px" y="0px"
	 viewBox="0 0 20 24" style="enable-background:new 0 0 20 24;" xml:space="preserve">
<style type="text/css">
	.st0{fill:#999999;}
</style>
<g id="形状_665">
	<path class="st0" d="M6.6,24c-0.1,0-0.3,0-0.4-0.1C1.9,22.1,0,18.6,0,16c0-0.1,0-0.4,0-0.7c0-0.2,0-0.4,0-0.5c0-3.2,2.1-5,3.3-6.1
		l0.2-0.2c0,0,0.1-0.1,0.1-0.1C7.4,5.9,7.5,1,7.5,1c0-0.4,0.2-0.7,0.5-0.9c0.3-0.2,0.7-0.1,1,0.1c7.1,5,10.8,9.8,10.9,14.1
		c0,0,0,0,0,0V16c0,3.7-2.5,6.9-6.2,7.7c-0.4,0.1-0.8-0.1-1.1-0.5c-0.2-0.4-0.2-0.8,0.1-1.2c1.6-2,1.8-3.2,0.6-4.9
		c-0.9-0.9-1.6-2-2.3-3c0-0.1-0.1-0.1-0.1-0.2c-0.1-0.2-0.1-0.4-0.2-0.5c0-0.1-0.1-0.3-0.1-0.4c-0.1,0-0.4,0-0.8,0.2
		c-2.6,0.7-4.4,3-4.6,5.7c0,0,0,1.2,2,3.4c0.3,0.4,0.3,0.9,0.1,1.2C7.2,23.9,6.9,24,6.6,24z M12.9,13.2c0.6,1,1.3,1.9,2.1,2.7
		c0,0,0.1,0.1,0.1,0.1c1.1,1.7,1.3,3.1,1,4.4c1.2-1.1,1.9-2.6,1.9-4.4v-1.6C17.9,11,14.9,7,9.3,2.8c-0.4,2-1.5,5.2-4.5,7.3l-0.2,0.1
		c-1.1,1-2.6,2.3-2.6,4.6c0,0.1,0,0.4,0,0.7c0,0.2,0,0.4,0,0.5c0,0.9,0.4,2.2,1.4,3.6c-0.1-0.4-0.1-0.7-0.1-0.8
		c0.2-3.5,2.6-6.5,6-7.4c0.7-0.2,1.6-0.5,2.4-0.1c0.7,0.4,0.9,1,1.1,1.6C12.8,12.9,12.8,13,12.9,13.2z"/>
</g>
</svg>
