<svg xmlns="http://www.w3.org/2000/svg" viewBox="0 0 32 32"><title>icon-hand</title><path d="M26.14 12h-4.92A12.29 12.29 0 0 0 21 6.26V6.1 6a3 3 0 0 0-3-3 4.23 4.23 0 0 0-3.92 2.62 1 1 0 0 0-.07.51A15.16 15.16 0 0 1 14.1 9c0 .58-1.55 2.27-3.23 3.63a1 1 0 0 0 1.26 1.56c.9-.72 3.83-3.22 4-5a17.28 17.28 0 0 0-.08-3A2.24 2.24 0 0 1 18 5a1 1 0 0 1 1 .88 2.28 2.28 0 0 0 .11.88 11 11 0 0 1-.08 6A1 1 0 0 0 20 14h5.92A1.44 1.44 0 0 1 27 15.63v.22c-.06.38-.13.89-.21 1.48C26 23 25.29 26.26 24.67 27H6.07A1.22 1.22 0 0 1 5 26V15.1A1.22 1.22 0 0 1 6 14h.9A1.22 1.22 0 0 1 8 15v9a1 1 0 1 0 2 0v-9.09A3.25 3.25 0 0 0 7 12H5.88A3.25 3.25 0 0 0 3 15v11.08A3.25 3.25 0 0 0 6 29h19a1 1 0 0 0 .42-.09c1.63-.75 2.44-4.55 3.37-11.3l.21-1.36c0-.1 0-.2.06-.3A3.45 3.45 0 0 0 26.14 12z" fill="#999"/></svg>