<?xml version="1.0" standalone="no"?><!DOCTYPE svg PUBLIC "-//W3C//DTD SVG 1.1//EN" "http://www.w3.org/Graphics/SVG/1.1/DTD/svg11.dtd"><svg t="1586256103006" class="icon" viewBox="0 0 1024 1024" version="1.1" xmlns="http://www.w3.org/2000/svg" p-id="1137" width="200" height="200" xmlns:xlink="http://www.w3.org/1999/xlink"><defs><style type="text/css"></style></defs><path d="M712.079186 393.767832l-33.382261 0 0-66.7635c0-93.445159-73.361771-166.857072-166.807953-166.857072-93.39604 0-166.805907 73.41089-166.805907 166.857072l0 66.7635-33.380215 0c-36.70391 0-66.712334 30.009448-66.712334 66.659122l0 333.717214c0 36.649675 30.009448 66.659122 66.712334 66.659122l400.376336 0c36.701863 0 66.709264-30.009448 66.709264-66.659122L778.788451 460.426954C778.788451 423.777279 748.780026 393.767832 712.079186 393.767832M511.888971 223.588088c56.744319 0 103.46741 46.670902 103.46741 103.416244l0 66.7635-203.559959 0 0-66.7635-3.373837 0C408.422585 270.25899 455.196841 223.588088 511.888971 223.588088M712.079186 794.144168 311.70285 794.144168 311.70285 460.426954l400.376336 0L712.079186 794.144168zM511.888971 694.047526c36.70698 0 66.713358-30.05652 66.713358-66.76043 0-36.70698-30.006378-66.7635-66.713358-66.7635-36.702887 0-66.709264 30.05652-66.709264 66.7635C445.179707 663.991006 475.186085 694.047526 511.888971 694.047526" p-id="1138" fill="#FF8429"></path></svg>