<svg xmlns="http://www.w3.org/2000/svg" viewBox="0 0 40 40"><title>me_icon_buy</title><path d="M34.62 13c-.08 0-.67-.34-1.62-.74V7a4 4 0 0 0-4-4H11a4 4 0 0 0-4 4v5.13c-.94.45-1.54.79-1.65.85C3.25 14.12 2 15.88 2 17.69V33a4 4 0 0 0 4 4h28a4 4 0 0 0 4-4V17.69c0-1.84-1.12-3.42-3.38-4.69zM11 35H6a2 2 0 0 1-2-2V22a2 2 0 0 1 2-2h28a2 2 0 0 1 2 2v11a2 2 0 0 1-2 2H11zm0-30h18a2 2 0 0 1 2 2v11H9V7a2 2 0 0 1 2-2zm22.66 9.71c1.55.9 2.34 1.9 2.34 3v.87a4 4 0 0 0-2-.58h-1v-3.6zm-27.35 0l.69-.35V18H6a4 4 0 0 0-2 .56v-.87c0-1.07.86-2.17 2.31-2.96z" fill="#666"/><path d="M11.5 11a1.5 1.5 0 0 0 1.5 1.5h2a1.5 1.5 0 0 0 1.5-1.5V9A1.5 1.5 0 0 0 15 7.5h-2A1.5 1.5 0 0 0 11.5 9zM13 8.5h2a.5.5 0 0 1 .5.5v2a.5.5 0 0 1-.5.5h-2a.5.5 0 0 1-.5-.5V9a.5.5 0 0 1 .5-.5zM19 10a1 1 0 0 0 1 1h7a1 1 0 0 0 0-2h-7a1 1 0 0 0-1 1zM27 14H13a1 1 0 0 0 0 2h14a1 1 0 0 0 0-2zM27.74 30.91h1.07v-3.44l3.24-4.68H30.8l-1.57 2.39c-.35.53-.64 1-.89 1.43-.26-.45-.53-.91-.83-1.37l-1.6-2.45h-1.3l3.13 4.68zM14.06 30.78a2.44 2.44 0 0 0 .89-.41 2 2 0 0 0 .6-.75 2.38 2.38 0 0 0 .24-1.06 2 2 0 0 0-.4-1.23 2.14 2.14 0 0 0-1.13-.74 2 2 0 0 0 .85-.74 1.84 1.84 0 0 0 .28-1 2 2 0 0 0-.32-1.07 1.91 1.91 0 0 0-.88-.76 3.67 3.67 0 0 0-1.49-.25h-3v8.12h3.1a5.46 5.46 0 0 0 1.26-.11zm-3.33-7h1.62a4.93 4.93 0 0 1 1.24.11 1 1 0 0 1 .55.42 1.35 1.35 0 0 1 .19.72 1.06 1.06 0 0 1-.83 1.11 4.09 4.09 0 0 1-1 .09h-1.78zm0 6.2v-2.82h1.87a4 4 0 0 1 1.19.14 1.19 1.19 0 0 1 .64.47 1.33 1.33 0 0 1 .23.79 1.4 1.4 0 0 1-.16.68 1.13 1.13 0 0 1-.41.45 1.56 1.56 0 0 1-.62.22 4.16 4.16 0 0 1-.73 0zM18.62 30.66a3.93 3.93 0 0 0 1.87.39 3.55 3.55 0 0 0 1.9-.45 2.37 2.37 0 0 0 1-1.17 5.57 5.57 0 0 0 .28-1.95v-4.69h-1.08v4.69a3.06 3.06 0 0 1-.5 2.06 2.23 2.23 0 0 1-1.69.54 2.35 2.35 0 0 1-1.17-.27 1.5 1.5 0 0 1-.68-.77 4.62 4.62 0 0 1-.2-1.56v-4.69h-1.07v4.69a5.47 5.47 0 0 0 .31 2 2.27 2.27 0 0 0 1.03 1.18z" fill="#666"/></svg>