<svg xmlns="http://www.w3.org/2000/svg" viewBox="0 0 40 40"><title>me_icon_service</title><path d="M37 23a5.57 5.57 0 0 0-2-4.2v-1.24C35 9 28.27 2 20 2S5 9 5 17.56v1.24A5.57 5.57 0 0 0 3 23c0 3.31 3.13 6 7 6V17a7.94 7.94 0 0 0-3 .59C7 10.08 12.83 4 20 4s13 6.08 13 13.56a7.94 7.94 0 0 0-3-.56v12a8 8 0 0 0 2.76-.49c-.69 4.13-3 6-7.77 6.39A2 2 0 1 0 22.8 37h.27c7.76-.07 11.31-2.93 11.85-9.73A5.59 5.59 0 0 0 37 23zM8 26.67A4.09 4.09 0 0 1 5 23a4.09 4.09 0 0 1 3-3.67zm24 0v-7.34A4.09 4.09 0 0 1 35 23a4.09 4.09 0 0 1-3 3.67z" fill="#666"/></svg>