<svg xmlns="http://www.w3.org/2000/svg" viewBox="0 0 40 40"><title>me_icon_message</title><path d="M20.13 5h-.28A16.21 16.21 0 0 0 9.16 9 11.39 11.39 0 0 0 5 17.72c0 7 4.8 12.6 8.7 16l1-2.23.55-1.27 1.38.07 2.6.14h.86c8.23 0 14.93-5.7 14.93-12.7S28.33 5 20.13 5zM12 20a2 2 0 1 1 2-2 2 2 0 0 1-2 2zm8 0a2 2 0 1 1 2-2 2 2 0 0 1-2 2zm8 0a2 2 0 1 1 2-2 2 2 0 0 1-2 2z" fill="none"/><path d="M37 17.77C37 9.64 29.41 3 20.13 3h-.28a18.21 18.21 0 0 0-12 4.52A13.41 13.41 0 0 0 3 17.7c0 9 7 15.84 11.49 19.3l.87-2 1.14-2.61 2.69.14h.87C29.34 32.47 37 25.9 37 17.77zm-16.93 12.7h-.86l-2.6-.14-1.38-.07-.55 1.27-1 2.23C9.8 30.32 5 24.68 5 17.72a11.39 11.39 0 0 1 4.12-8.66A16.21 16.21 0 0 1 19.85 5h.28C28.33 5 35 10.73 35 17.77s-6.7 12.7-14.93 12.7z" fill="#666"/><circle cx="12" cy="18" r="2" fill="#666"/><circle cx="20" cy="18" r="2" fill="#666"/><circle cx="28" cy="18" r="2" fill="#666"/></svg>