<svg xmlns="http://www.w3.org/2000/svg" viewBox="0 0 40 40"><title>me_icon_level</title><path d="M37.28 11.91L29.9 4.7a2.34 2.34 0 0 0-1.7-.7H11.8a2.41 2.41 0 0 0-1.69.69l-7.39 7.22A2.37 2.37 0 0 0 2 13.62v2.87a2.45 2.45 0 0 0 .61 1.58l15.61 17.14a2.4 2.4 0 0 0 1.67.78H20a2.39 2.39 0 0 0 1.62-.63l.16-.16 15.6-17.13a2.26 2.26 0 0 0 .62-1.6v-2.84a2.37 2.37 0 0 0-.72-1.72zm-1.37 4.81L20.28 33.89A.45.45 0 0 1 20 34a.41.41 0 0 1-.28-.13L4.1 16.75a.43.43 0 0 1-.1-.27v-2.87a.37.37 0 0 1 .11-.27l7.4-7.23a.41.41 0 0 1 .3-.11H28.2a.31.31 0 0 1 .29.12l7.39 7.22a.36.36 0 0 1 .11.27v2.9a.29.29 0 0 1-.07.22z" fill="#666"/><path fill="#666" d="M23.63 15.94L20 20.57l-3.63-4.64.37-.93H12l8 9.97V25l8-9.97h-4.74l.37.91"/></svg>