<svg xmlns="http://www.w3.org/2000/svg" viewBox="0 0 40 40"><title>me_icon_shop</title><path d="M29 30a1 1 0 0 1-1 1h-4v2h4a3 3 0 0 0 3-3v-2h-2zM25 22h-4v-2h4v-2h-4l5-6h-2l-4 5-4-5h-2l5 6h-4v2h4v2h-4v2h4v4h2v-4h4v-2" fill="#666"/><path d="M31 4h-2.56A4 4 0 0 0 25 2H15a4 4 0 0 0-3.44 2H9a5 5 0 0 0-5 5v24a5 5 0 0 0 5 5h22a5 5 0 0 0 5-5V9a5 5 0 0 0-5-5zM15 4h10a2 2 0 0 1 0 4H15a2 2 0 0 1 0-4zm19 29a3 3 0 0 1-3 3H9a3 3 0 0 1-3-3V9a3 3 0 0 1 3-3h2a4 4 0 0 0 4 4h10a4 4 0 0 0 4-4h2a3 3 0 0 1 3 3z" fill="#666"/></svg>