<svg xmlns="http://www.w3.org/2000/svg" viewBox="0 0 52 52"><title>read_icon_like_n</title><path d="M51.11 23.25L50 21.46a6.87 6.87 0 0 0-5.54-3.2H34.34a21.09 21.09 0 0 0 .79-5.74 21.62 21.62 0 0 0-.35-3.79l-.22-.92A6.82 6.82 0 0 0 21.1 9.3v.55c-.18 4.71-5.65 9.55-7.87 10.32l-9 .11A3.68 3.68 0 0 0 1 23.51v22.62a3.62 3.62 0 0 0 3.39 3.27h35.85a8.12 8.12 0 0 0 3.55-.85 6.33 6.33 0 0 0 2.28-2.4l.34-.56.07-.13c2-4.65 4.37-18.64 4.48-19.34v-.54a6.67 6.67 0 0 0-.24-2.37zM49 25.43v.46c-.86 4.91-2.82 15.11-4.33 18.72l-.34.55a4.39 4.39 0 0 1-1.5 1.64 6 6 0 0 1-2.59.6H15V22.53h-2V47.4H4.45A1.59 1.59 0 0 1 3 46V23.7a1.68 1.68 0 0 1 1.4-1.43l6.83-.08v.08h1.56c3 0 10.21-6.5 10.38-12.43v-.13a3.59 3.59 0 0 1 0-.39 4.82 4.82 0 0 1 9.5-1.08l.2.86a19.62 19.62 0 0 1 .3 3.38 19.11 19.11 0 0 1-1.1 6.4l-.47 1.33 12.85.06a4.86 4.86 0 0 1 3.78 2.09l.11.18a4.68 4.68 0 0 1 .66 2.89z" fill="#666"/></svg>