<svg xmlns="http://www.w3.org/2000/svg" viewBox="0 0 52 52"><title>read_icon_menu_n</title><path d="M26 3a23 23 0 1 0 23 23A23 23 0 0 0 26 3zm0 44a21 21 0 1 1 21-21 21 21 0 0 1-21 21z" fill="#666"/><path d="M18.71 18.33h-2a1 1 0 0 0 0 2h2a1 1 0 0 0 0-2zM34.32 18.33H22.79a1 1 0 0 0 0 2h11.53a1 1 0 0 0 0-2zM18.71 25.67h-2a1 1 0 0 0 0 2h2a1 1 0 0 0 0-2zM34.32 25.67H22.79a1 1 0 0 0 0 2h11.53a1 1 0 0 0 0-2zM18.71 33h-2a1 1 0 0 0 0 2h2a1 1 0 1 0 0-2zM34.32 33H22.79a1 1 0 1 0 0 2h11.53a1 1 0 0 0 0-2z" fill="#666"/></svg>