<svg xmlns="http://www.w3.org/2000/svg" viewBox="0 0 52 52"><title>read_icon_like_s</title><path d="M49.13 22a5.85 5.85 0 0 0-4.7-2.73L33 19.22a20.17 20.17 0 0 0 1.15-6.73 20.46 20.46 0 0 0-.32-3.56L33.57 8A5.82 5.82 0 0 0 22.1 9.31a4.71 4.71 0 0 0 0 .51c-.1 5.58-7.03 11.45-9.36 11.45v-.1l-8.41.1A2.7 2.7 0 0 0 2 23.63V46a2.61 2.61 0 0 0 2.39 2.36h35.85a7 7 0 0 0 3-.7 5.42 5.42 0 0 0 1.95-2.07l.34-.56c1.94-4.53 4.3-18.42 4.4-19v-.56a5.64 5.64 0 0 0-.8-3.47zM15 47.42h-2V22.53h2z" fill="#ff5420"/></svg>