<svg xmlns="http://www.w3.org/2000/svg" viewBox="0 0 52 52"><title>read_icon_book_n</title><path d="M38.26 50.86a5.38 5.38 0 0 1-2.46-.59l-8.26-4.48a3.22 3.22 0 0 0-3.07 0l-8.24 4.47a5.35 5.35 0 0 1-7.73-5.77l1.57-9.42a3.55 3.55 0 0 0-1-3.07l-6.63-6.69A5.49 5.49 0 0 1 5.37 16l9.24-1.37a3.34 3.34 0 0 0 2.5-1.88l4.13-8.61a5.26 5.26 0 0 1 9.55 0l4.12 8.59a3.35 3.35 0 0 0 2.51 1.88l9.2 1.39a5.5 5.5 0 0 1 3 9.3L42.91 32a3.55 3.55 0 0 0-1 3.07l1.57 9.45a5.35 5.35 0 0 1-5.25 6.35zM26 3.11A3.27 3.27 0 0 0 23 5l-4.13 8.61a5.34 5.34 0 0 1-4 3L5.69 18a3.46 3.46 0 0 0-1.83 1 3.5 3.5 0 0 0 0 4.94l6.67 6.69A5.56 5.56 0 0 1 12 35.4l-1.58 9.45a3.35 3.35 0 0 0 4.82 3.65l8.28-4.5a5.2 5.2 0 0 1 5 0l8.24 4.47a3.35 3.35 0 0 0 4.81-3.63L40 35.39a5.55 5.55 0 0 1 1.52-4.81l6.67-6.69A3.49 3.49 0 0 0 46.3 18l-9.19-1.37a5.34 5.34 0 0 1-4-3L29 5a3.26 3.26 0 0 0-3-1.9z" fill="#666"/></svg>