<svg xmlns="http://www.w3.org/2000/svg" xmlns:xlink="http://www.w3.org/1999/xlink" viewBox="0 0 40 40"><defs><linearGradient id="a" x1="345" y1="-4405" x2="345" y2="-4369" gradientTransform="matrix(1, 0, 0, -1, -325.02, -4367)" gradientUnits="userSpaceOnUse"><stop offset="0" stop-color="#ff5420"/><stop offset="1" stop-color="#ff730a"/></linearGradient></defs><title>tabbar_home_s</title><path d="M37,18,22,3a2.77,2.77,0,0,0-2-1,2.8,2.8,0,0,0-2,1L3,18a1.94,1.94,0,0,0,0,3,2,2,0,0,0,2.9.1L6,21V35c0,2.2,1,3,2.3,3H16V27h8V38h7.3A2.66,2.66,0,0,0,34,35V21a1.87,1.87,0,0,0,3,0,1.93,1.93,0,0,0,0-3Z" style="fill:url(#a)"/><path d="M17,18h6a1,1,0,0,1,1,1h0a1,1,0,0,1-1,1H17a1,1,0,0,1-1-1h0A1,1,0,0,1,17,18Z" style="fill:#fff"/><rect width="40" height="40" style="fill:#fff;opacity:0"/></svg>