<svg xmlns="http://www.w3.org/2000/svg" viewBox="0 0 40 40"><title>tabbar_book_n</title><rect x="14" y="2" width="12" height="36" rx="2" ry="2" style="fill:#888"/><rect x="2" y="16" width="10" height="22" rx="2" ry="2" style="fill:#888"/><rect x="28" y="7" width="10" height="31" rx="2" ry="2" style="fill:#888"/><path d="M5,33H9a1,1,0,0,1,1,1h0a1,1,0,0,1-1,1H5a1,1,0,0,1-1-1H4A1,1,0,0,1,5,33Z" style="fill:#fff"/><path d="M31.13,33h4a1,1,0,0,1,1,1h0a1,1,0,0,1-1,1h-4a1,1,0,0,1-1-1h0A1,1,0,0,1,31.13,33Z" style="fill:#fff"/><path d="M18.06,33h4a1,1,0,0,1,1,1h0a1,1,0,0,1-1,1h-4a1,1,0,0,1-1-1h0A1,1,0,0,1,18.06,33Z" style="fill:#fff"/><path d="M18.06,27h4a1,1,0,0,1,1,1h0a1,1,0,0,1-1,1h-4a1,1,0,0,1-1-1h0A1,1,0,0,1,18.06,27Z" style="fill:#fff"/><rect width="40" height="40" style="fill:#fff;opacity:0"/></svg>