<svg xmlns="http://www.w3.org/2000/svg" xmlns:xlink="http://www.w3.org/1999/xlink" viewBox="0 0 40 40"><defs><linearGradient id="a" x1="105" y1="-4405" x2="105" y2="-4369" gradientTransform="matrix(1, 0, 0, -1, -85, -4367)" gradientUnits="userSpaceOnUse"><stop offset="0" stop-color="#ff5420"/><stop offset="1" stop-color="#ff730a"/></linearGradient><linearGradient id="b" x1="20" y1="0" x2="20" y2="40" gradientTransform="matrix(1, 0, 0, 1, 0, 0)" xlink:href="#a"/></defs><title>tabbar_book_s</title><path d="M16,2h8a2,2,0,0,1,2,2V36a2,2,0,0,1-2,2H16a2,2,0,0,1-2-2V4A2,2,0,0,1,16,2ZM4,16h6a2,2,0,0,1,2,2V36a2,2,0,0,1-2,2H4a2,2,0,0,1-2-2V18A2,2,0,0,1,4,16ZM30,7h6a2,2,0,0,1,2,2V36a2,2,0,0,1-2,2H30a2,2,0,0,1-2-2V9A2,2,0,0,1,30,7Z" style="fill:url(#a)"/><rect x="4.03" y="33" width="6" height="2" style="fill:#fff"/><rect x="30" y="33" width="6" height="2" style="fill:#fff"/><rect x="17.06" y="33" width="6.03" height="2" style="fill:#fff"/><rect x="17.06" y="27" width="6.03" height="2" style="fill:#fff"/><rect width="40" height="40" style="opacity:0;fill:url(#b)"/></svg>