<?xml version="1.0" standalone="no"?><!DOCTYPE svg PUBLIC "-//W3C//DTD SVG 1.1//EN" "http://www.w3.org/Graphics/SVG/1.1/DTD/svg11.dtd"><svg t="1586258367481" class="icon" viewBox="0 0 1024 1024" version="1.1" xmlns="http://www.w3.org/2000/svg" p-id="1661" xmlns:xlink="http://www.w3.org/1999/xlink" width="200" height="200"><defs><style type="text/css"></style></defs><path d="M511.589143 696.467642c36.874802 0 67.024442-30.198759 67.024442-67.024442 0-36.829777-30.14964-67.027512-67.024442-67.027512-36.928014 0-67.078678 30.198759-67.078678 67.027512C444.510465 666.268883 474.661129 696.467642 511.589143 696.467642M712.718752 394.769647l-33.538827 0 0-67.027512c0-93.887227-73.753697-167.593852-167.589759-167.593852-93.89132 0-167.645017 73.706625-167.645017 167.593852l63.73554 0c0-56.963306 46.895006-103.905384 103.909477-103.905384 56.959213 0 103.902314 46.942078 103.902314 103.905384l0 67.027512-305.038063 0c-36.926991 0-67.075608 30.201829-67.075608 67.075608l0 335.191797c0 36.872755 30.147594 67.074584 67.075608 67.074584l402.265358 0c36.878895 0 67.027512-30.201829 67.027512-67.074584L779.747288 461.845255C779.746264 424.9725 749.596624 394.769647 712.718752 394.769647M712.718752 797.037052l-402.265358 0L310.453394 461.795113l402.265358 0L712.718752 797.037052z" p-id="1662" fill="#1afa29"></path></svg>